<svg id="Capa_1" data-name="Capa 1" xmlns="http://www.w3.org/2000/svg" viewBox="0 0 267.28 56.24">
  <title>logo_aurea_real</title>
  <path
    d="M242.84,438.84H199.07c.34,13.13,14.7,18.47,28.45,10.6l6.33,6.65c-8,9-22.57,10.36-33.54,3.38A27.2,27.2,0,0,1,190,425.28a28,28,0,0,1,33.35-15.19C235.75,413.64,244.39,426.19,242.84,438.84ZM200.2,428.46h31.05c-3.77-6.83-8.86-10.44-16.15-10.48C208.46,418,202.81,422,200.2,428.46Z"
    transform="translate(-33.53 -407.66)"
  />
  <path
    d="M84.76,461.65c-4.33-.85-8.81,2.37-10.87-1.78-5.55,1-11.1,3.38-16.14,2.56a34.93,34.93,0,0,1-15.81-7.49c-9-7.46-10.74-20.43-5.38-31,5.66-11.12,17.7-17,30.54-14.86.49.08,1,.23,1.45.33,15.51,3.12,16.21,4,16.21,19.46ZM74,435.3c0-3.16.16-6.33-.07-9.47a5.8,5.8,0,0,0-1.58-3.8c-5-4-14.43-4-20.26-.12a16.63,16.63,0,0,0-7.41,17.66c1.6,6.75,8.26,12.48,15.29,13.14,9.1.85,14-3.52,14-12.43C74,438.62,74,437,74,435.3Z"
    transform="translate(-33.53 -407.66)"
  />
  <path
    d="M300.76,461.5c-4.4-.57-9,2.54-11.56-3-11.43,7.55-26.22,4.54-34.59-7s-6-27.45,5.34-36.61c10-8,29.69-8.05,39.33,0a4.93,4.93,0,0,1,1.4,2.42,12.32,12.32,0,0,1,.07,3C300.76,433.88,300.76,447.46,300.76,461.5Zm-10.79-26v-5c0-8.78-.48-9.39-8.9-11.13a17.3,17.3,0,0,0-18.37,8.11,15.3,15.3,0,0,0,.89,18.13,17,17,0,0,0,19,6.26C288.73,450,290,448.32,290,442,290,439.8,290,437.65,290,435.49Z"
    transform="translate(-33.53 -407.66)"
  />
  <path
    d="M134.69,409.9h10.56v51.7c-3.91-.92-8.62,2.8-11.21-3.31-7.59,6.59-16,6-24.38,1.48S97.83,447.64,98,438.19c.14-9.28,0-18.57,0-28.17h10.77c0,9.93-.13,19.7,0,29.46.14,8.86,6.63,14.4,15,13.14,6.48-1,10.69-5.52,10.8-12.27C134.81,430.4,134.69,420.45,134.69,409.9Z"
    transform="translate(-33.53 -407.66)"
  />
  <path
    d="M170.17,461.79h-9.86V411c7.1-2.13,9.72-1.45,10.65,2.3l12.57-5.63v10.58c-11.62,4.43-12.76,6.12-12.78,18.89q0,11.72-.1,23.42A4.81,4.81,0,0,1,170.17,461.79Z"
    transform="translate(-33.53 -407.66)"
  />
</svg>
